<?xml version="1.0" encoding="UTF-8" standalone="no"?>
<!-- Created with Inkscape (http://www.inkscape.org/) -->

<svg
   xmlns:dc="http://purl.org/dc/elements/1.1/"
   xmlns:cc="http://creativecommons.org/ns#"
   xmlns:rdf="http://www.w3.org/1999/02/22-rdf-syntax-ns#"
   xmlns:svg="http://www.w3.org/2000/svg"
   xmlns="http://www.w3.org/2000/svg"
   xmlns:xlink="http://www.w3.org/1999/xlink"
   xmlns:sodipodi="http://sodipodi.sourceforge.net/DTD/sodipodi-0.dtd"
   xmlns:inkscape="http://www.inkscape.org/namespaces/inkscape"
   width="210mm"
   height="297mm"
   viewBox="0 0 744.09448819 1052.3622047"
   id="svg2"
   version="1.1"
   inkscape:version="0.91 r"
   sodipodi:docname="icons.svg">
  <defs
     id="defs4">
    <linearGradient
       inkscape:collect="always"
       id="linearGradient4389">
      <stop
         style="stop-color:#c9c9c9;stop-opacity:1"
         offset="0"
         id="stop4391" />
      <stop
         id="stop4393"
         offset="0.39560327"
         style="stop-color:#ffffff;stop-opacity:0.49803922" />
      <stop
         style="stop-color:#ffffff;stop-opacity:0.38039216"
         offset="0.60679585"
         id="stop4399" />
      <stop
         style="stop-color:#979797;stop-opacity:0.17254902"
         offset="0.86656195"
         id="stop4397" />
      <stop
         style="stop-color:#e8e8e8;stop-opacity:0"
         offset="1"
         id="stop4395" />
    </linearGradient>
    <linearGradient
       id="linearGradient4351"
       inkscape:collect="always">
      <stop
         id="stop4381"
         offset="0"
         style="stop-color:#c9c9c9;stop-opacity:1" />
      <stop
         style="stop-color:#fafafa;stop-opacity:0.67450982"
         offset="0.32555422"
         id="stop4403" />
      <stop
         style="stop-color:#ffffff;stop-opacity:0.49803922"
         offset="0.50413465"
         id="stop4383" />
      <stop
         id="stop4401"
         offset="0.69998741"
         style="stop-color:#f8f8f8;stop-opacity:0.34901961;" />
      <stop
         id="stop4385"
         offset="1"
         style="stop-color:#e8e8e8;stop-opacity:0" />
    </linearGradient>
    <linearGradient
       inkscape:collect="always"
       xlink:href="#linearGradient4351"
       id="linearGradient4359"
       x1="848.01172"
       y1="366.45996"
       x2="859.80484"
       y2="366.45996"
       gradientUnits="userSpaceOnUse"
       gradientTransform="translate(0.06399602,-0.03047115)" />
    <linearGradient
       inkscape:collect="always"
       xlink:href="#linearGradient4389"
       id="linearGradient4377"
       x1="848.0578"
       y1="365.96674"
       x2="836.1369"
       y2="365.53616"
       gradientUnits="userSpaceOnUse"
       gradientTransform="translate(0,-0.03046504)" />
    <linearGradient
       inkscape:collect="always"
       xlink:href="#linearGradient4351"
       id="linearGradient4430"
       gradientUnits="userSpaceOnUse"
       gradientTransform="translate(0.06399602,-0.03047115)"
       x1="848.01172"
       y1="366.45996"
       x2="859.80484"
       y2="366.45996" />
    <linearGradient
       inkscape:collect="always"
       xlink:href="#linearGradient4389"
       id="linearGradient4432"
       gradientUnits="userSpaceOnUse"
       gradientTransform="translate(0,-0.03046504)"
       x1="848.0578"
       y1="365.96674"
       x2="836.1369"
       y2="365.53616" />
  </defs>
  <sodipodi:namedview
     id="base"
     pagecolor="#ffffff"
     bordercolor="#666666"
     borderopacity="1.0"
     inkscape:pageopacity="0.0"
     inkscape:pageshadow="2"
     inkscape:zoom="7.812986"
     inkscape:cx="872.34686"
     inkscape:cy="695.58277"
     inkscape:document-units="px"
     inkscape:current-layer="layer1"
     showgrid="false"
     inkscape:window-width="1600"
     inkscape:window-height="1182"
     inkscape:window-x="1024"
     inkscape:window-y="0"
     inkscape:window-maximized="1" />
  <metadata
     id="metadata7">
    <rdf:RDF>
      <cc:Work
         rdf:about="">
        <dc:format>image/svg+xml</dc:format>
        <dc:type
           rdf:resource="http://purl.org/dc/dcmitype/StillImage" />
        <dc:title></dc:title>
      </cc:Work>
    </rdf:RDF>
  </metadata>
  <g
     inkscape:label="Layer 1"
     inkscape:groupmode="layer"
     id="layer1">
    <g
       id="g4703">
      <g
         transform="translate(33.486494,0)"
         id="g4414">
        <path
           sodipodi:nodetypes="czccczccc"
           inkscape:connector-curvature="0"
           id="path4416"
           d="m 849.99676,358.26137 c 0,0 -0.82012,0.23269 -1.98527,0.23269 -1.16516,0 -1.98527,-0.23269 -1.98527,-0.23269 l 0,9.69539 0,9.6954 c 0,0 0.52399,0.23269 1.98527,0.23269 1.46127,0 1.98527,-0.23269 1.98527,-0.23269 l 0,-9.6954 z"
           style="opacity:1;fill:#000000;fill-opacity:1;stroke:none;stroke-width:2;stroke-linecap:round;stroke-linejoin:miter;stroke-miterlimit:4;stroke-dasharray:none;stroke-dashoffset:0;stroke-opacity:1" />
        <rect
           transform="matrix(0.99496164,-0.10025634,0,1,0,0)"
           ry="0"
           rx="0"
           y="443.75201"
           x="854.46185"
           height="19.390793"
           width="11.735441"
           id="rect4418"
           style="opacity:1;fill:#000000;fill-opacity:1;stroke:none;stroke-width:2;stroke-linecap:round;stroke-linejoin:miter;stroke-miterlimit:4;stroke-dasharray:none;stroke-dashoffset:0;stroke-opacity:1" />
        <use
           height="100%"
           width="100%"
           transform="matrix(-1,0,0,1,1696.023,-5.1285753e-8)"
           id="use4420"
           xlink:href="#rect4188"
           y="0"
           x="0" />
        <path
           sodipodi:nodetypes="scccscccccscs"
           inkscape:connector-curvature="0"
           id="path4422"
           d="m 855.0957,376.34202 c 3.38676,-0.13549 5.95508,-0.61523 5.95508,-0.61523 l 0,-9.42383 0,-9.42383 c 0,0 -3.19412,0.70604 -5.95508,0.61524 -2.76096,-0.0908 -7.08398,1.03125 -7.08398,1.03125 0,0 -4.32303,-1.12202 -7.08399,-1.03125 -2.76096,0.0908 -5.95507,-0.61524 -5.95507,-0.61524 l 0,9.42383 0,9.42383 c 0,0 2.56831,0.47974 5.95507,0.61523 3.38677,0.13549 7.08399,1.03125 7.08399,1.03125 0,0 3.69721,-0.89576 7.08398,-1.03125 z"
           style="opacity:1;fill:#ffffff;fill-opacity:1;stroke:#000000;stroke-width:0.25;stroke-linecap:round;stroke-linejoin:round;stroke-miterlimit:4;stroke-dasharray:none;stroke-dashoffset:0;stroke-opacity:1" />
        <path
           sodipodi:nodetypes="ccccscscccccc"
           inkscape:connector-curvature="0"
           id="path4424"
           d="m 855.3457,375.25154 c 2.82721,-0.24019 4.57227,-0.46875 4.57227,-0.46875 l 0,-9.42382 0,-9.42383 c 0,0 -1.10895,0.27383 -4.57227,0.46875 -3.46333,0.19492 -7.33398,1.75586 -7.33398,1.75586 0,0 -3.87066,-1.56094 -7.33399,-1.75586 -3.46332,-0.19492 -4.57226,-0.46875 -4.57226,-0.46875 l 0,9.42383 0,9.42382 c 0,0 1.74505,0.22856 4.57226,0.46875 2.82721,0.24024 7.33399,1.75586 7.33399,1.75586 0,0 4.50677,-1.51562 7.33398,-1.75586 z"
           style="opacity:1;fill:#ffffff;fill-opacity:1;stroke:#000000;stroke-width:0.24999999;stroke-linecap:round;stroke-linejoin:round;stroke-miterlimit:4;stroke-dasharray:none;stroke-dashoffset:0;stroke-opacity:1" />
        <path
           style="opacity:0.25;fill:url(#linearGradient4430);fill-opacity:1;stroke:none;stroke-width:0.24999999;stroke-linecap:round;stroke-linejoin:round;stroke-miterlimit:4;stroke-dasharray:none;stroke-dashoffset:0;stroke-opacity:1"
           d="m 855.34001,375.09664 c 2.80035,-0.2371 4.52883,-0.46272 4.52883,-0.46272 l 0,-9.30239 0,-9.3024 c 0,0 -1.09841,0.2703 -4.52883,0.46271 -3.43042,0.1924 -7.26429,1.73323 -7.26429,1.73323 l 0,18.6048 c 0,0 4.46395,-1.49608 7.26429,-1.73323 z"
           id="path4426"
           inkscape:connector-curvature="0"
           sodipodi:nodetypes="ccccsccc" />
        <path
           sodipodi:nodetypes="ccccsccc"
           inkscape:connector-curvature="0"
           id="path4428"
           d="m 840.74743,375.09664 c -2.80035,-0.2371 -4.52883,-0.46272 -4.52883,-0.46272 l 0,-9.30239 0,-9.3024 c 0,0 1.09841,0.2703 4.52883,0.46271 3.43042,0.1924 7.26429,1.73323 7.26429,1.73323 l 0,18.6048 c 0,0 -4.46395,-1.49608 -7.26429,-1.73323 z"
           style="opacity:0.5;fill:url(#linearGradient4432);fill-opacity:1;stroke:none;stroke-width:0.24999999;stroke-linecap:round;stroke-linejoin:round;stroke-miterlimit:4;stroke-dasharray:none;stroke-dashoffset:0;stroke-opacity:1" />
      </g>
      <g
         id="g4454">
        <path
           style="fill:none;fill-rule:evenodd;stroke:#000000;stroke-width:0.25;stroke-linecap:butt;stroke-linejoin:miter;stroke-opacity:1"
           d="m 871.12895,357.98135 8.54271,0.97254"
           id="path4434"
           inkscape:connector-curvature="0" />
        <path
           inkscape:connector-curvature="0"
           id="path4436"
           d="m 871.12895,359.35903 8.54271,0.97254"
           style="fill:none;fill-rule:evenodd;stroke:#000000;stroke-width:0.25;stroke-linecap:butt;stroke-linejoin:miter;stroke-opacity:1" />
        <path
           style="fill:none;fill-rule:evenodd;stroke:#000000;stroke-width:0.25;stroke-linecap:butt;stroke-linejoin:miter;stroke-opacity:1"
           d="m 871.12895,360.73672 8.54271,0.97254"
           id="path4438"
           inkscape:connector-curvature="0" />
        <path
           inkscape:connector-curvature="0"
           id="path4440"
           d="m 871.12895,365.95583 8.54271,0.97254"
           style="fill:none;fill-rule:evenodd;stroke:#000000;stroke-width:0.25;stroke-linecap:butt;stroke-linejoin:miter;stroke-opacity:1" />
        <path
           style="fill:none;fill-rule:evenodd;stroke:#000000;stroke-width:0.25;stroke-linecap:butt;stroke-linejoin:miter;stroke-opacity:1"
           d="m 871.12895,362.1144 8.54271,0.97254"
           id="path4442"
           inkscape:connector-curvature="0" />
        <path
           style="fill:none;fill-rule:evenodd;stroke:#000000;stroke-width:0.25;stroke-linecap:butt;stroke-linejoin:miter;stroke-opacity:1"
           d="m 871.12895,364.57814 8.54271,0.97254"
           id="path4444"
           inkscape:connector-curvature="0" />
        <path
           inkscape:connector-curvature="0"
           id="path4446"
           d="m 871.12895,367.33351 8.54271,0.97254"
           style="fill:none;fill-rule:evenodd;stroke:#000000;stroke-width:0.25;stroke-linecap:butt;stroke-linejoin:miter;stroke-opacity:1" />
        <path
           style="fill:none;fill-rule:evenodd;stroke:#000000;stroke-width:0.25;stroke-linecap:butt;stroke-linejoin:miter;stroke-opacity:1"
           d="m 871.12895,370.15926 8.54271,0.97254"
           id="path4448"
           inkscape:connector-curvature="0" />
        <path
           inkscape:connector-curvature="0"
           id="path4450"
           d="m 871.12895,371.53694 8.54271,0.97254"
           style="fill:none;fill-rule:evenodd;stroke:#000000;stroke-width:0.25;stroke-linecap:butt;stroke-linejoin:miter;stroke-opacity:1" />
        <path
           style="fill:none;fill-rule:evenodd;stroke:#000000;stroke-width:0.25;stroke-linecap:butt;stroke-linejoin:miter;stroke-opacity:1"
           d="m 871.12895,372.91463 8.54271,0.97254"
           id="path4452"
           inkscape:connector-curvature="0" />
      </g>
      <g
         transform="matrix(-1,0,0,1,1763.0186,0)"
         id="g4466">
        <path
           inkscape:connector-curvature="0"
           id="path4468"
           d="m 871.12895,357.98135 8.54271,0.97254"
           style="fill:none;fill-rule:evenodd;stroke:#000000;stroke-width:0.25;stroke-linecap:butt;stroke-linejoin:miter;stroke-opacity:1" />
        <path
           style="fill:none;fill-rule:evenodd;stroke:#000000;stroke-width:0.25;stroke-linecap:butt;stroke-linejoin:miter;stroke-opacity:1"
           d="m 871.12895,359.35903 8.54271,0.97254"
           id="path4470"
           inkscape:connector-curvature="0" />
        <path
           inkscape:connector-curvature="0"
           id="path4472"
           d="m 871.12895,360.73672 8.54271,0.97254"
           style="fill:none;fill-rule:evenodd;stroke:#000000;stroke-width:0.25;stroke-linecap:butt;stroke-linejoin:miter;stroke-opacity:1" />
        <path
           style="fill:none;fill-rule:evenodd;stroke:#000000;stroke-width:0.25;stroke-linecap:butt;stroke-linejoin:miter;stroke-opacity:1"
           d="m 871.12895,365.95583 8.54271,0.97254"
           id="path4474"
           inkscape:connector-curvature="0" />
        <path
           inkscape:connector-curvature="0"
           id="path4476"
           d="m 871.12895,362.1144 8.54271,0.97254"
           style="fill:none;fill-rule:evenodd;stroke:#000000;stroke-width:0.25;stroke-linecap:butt;stroke-linejoin:miter;stroke-opacity:1" />
        <path
           inkscape:connector-curvature="0"
           id="path4478"
           d="m 871.12895,364.57814 8.54271,0.97254"
           style="fill:none;fill-rule:evenodd;stroke:#000000;stroke-width:0.25;stroke-linecap:butt;stroke-linejoin:miter;stroke-opacity:1" />
        <path
           style="fill:none;fill-rule:evenodd;stroke:#000000;stroke-width:0.25;stroke-linecap:butt;stroke-linejoin:miter;stroke-opacity:1"
           d="m 871.12895,367.33351 8.54271,0.97254"
           id="path4480"
           inkscape:connector-curvature="0" />
        <path
           inkscape:connector-curvature="0"
           id="path4482"
           d="m 871.12895,370.15926 8.54271,0.97254"
           style="fill:none;fill-rule:evenodd;stroke:#000000;stroke-width:0.25;stroke-linecap:butt;stroke-linejoin:miter;stroke-opacity:1" />
        <path
           style="fill:none;fill-rule:evenodd;stroke:#000000;stroke-width:0.25;stroke-linecap:butt;stroke-linejoin:miter;stroke-opacity:1"
           d="m 871.12895,371.53694 8.54271,0.97254"
           id="path4484"
           inkscape:connector-curvature="0" />
        <path
           inkscape:connector-curvature="0"
           id="path4486"
           d="m 871.12895,372.91463 8.54271,0.97254"
           style="fill:none;fill-rule:evenodd;stroke:#000000;stroke-width:0.25;stroke-linecap:butt;stroke-linejoin:miter;stroke-opacity:1" />
      </g>
    </g>
    <g
       id="g4617">
      <g
         id="g4405">
        <path
           style="opacity:1;fill:#000000;fill-opacity:1;stroke:none;stroke-width:2;stroke-linecap:round;stroke-linejoin:miter;stroke-miterlimit:4;stroke-dasharray:none;stroke-dashoffset:0;stroke-opacity:1"
           d="m 849.99676,358.26137 c 0,0 -0.82012,0.23269 -1.98527,0.23269 -1.16516,0 -1.98527,-0.23269 -1.98527,-0.23269 l 0,9.69539 0,9.6954 c 0,0 0.52399,0.23269 1.98527,0.23269 1.46127,0 1.98527,-0.23269 1.98527,-0.23269 l 0,-9.6954 z"
           id="rect4146"
           inkscape:connector-curvature="0"
           sodipodi:nodetypes="czccczccc" />
        <rect
           style="opacity:1;fill:#000000;fill-opacity:1;stroke:none;stroke-width:2;stroke-linecap:round;stroke-linejoin:miter;stroke-miterlimit:4;stroke-dasharray:none;stroke-dashoffset:0;stroke-opacity:1"
           id="rect4188"
           width="11.735441"
           height="19.390793"
           x="854.46185"
           y="443.75201"
           rx="0"
           ry="0"
           transform="matrix(0.99496164,-0.10025634,0,1,0,0)" />
        <use
           x="0"
           y="0"
           xlink:href="#rect4188"
           id="use4191"
           transform="matrix(-1,0,0,1,1696.023,-5.1285753e-8)"
           width="100%"
           height="100%" />
        <path
           style="opacity:1;fill:#ffffff;fill-opacity:1;stroke:#000000;stroke-width:0.25;stroke-linecap:round;stroke-linejoin:round;stroke-miterlimit:4;stroke-dasharray:none;stroke-dashoffset:0;stroke-opacity:1"
           d="m 855.0957,376.34202 c 3.38676,-0.13549 5.95508,-0.61523 5.95508,-0.61523 l 0,-9.42383 0,-9.42383 c 0,0 -3.19412,0.70604 -5.95508,0.61524 -2.76096,-0.0908 -7.08398,1.03125 -7.08398,1.03125 0,0 -4.32303,-1.12202 -7.08399,-1.03125 -2.76096,0.0908 -5.95507,-0.61524 -5.95507,-0.61524 l 0,9.42383 0,9.42383 c 0,0 2.56831,0.47974 5.95507,0.61523 3.38677,0.13549 7.08399,1.03125 7.08399,1.03125 0,0 3.69721,-0.89576 7.08398,-1.03125 z"
           id="rect4193"
           inkscape:connector-curvature="0"
           sodipodi:nodetypes="scccscccccscs" />
        <path
           style="opacity:1;fill:#ffffff;fill-opacity:1;stroke:#000000;stroke-width:0.24999999;stroke-linecap:round;stroke-linejoin:round;stroke-miterlimit:4;stroke-dasharray:none;stroke-dashoffset:0;stroke-opacity:1"
           d="m 855.3457,375.25154 c 2.82721,-0.24019 4.57227,-0.46875 4.57227,-0.46875 l 0,-9.42382 0,-9.42383 c 0,0 -1.10895,0.27383 -4.57227,0.46875 -3.46333,0.19492 -7.33398,1.75586 -7.33398,1.75586 0,0 -3.87066,-1.56094 -7.33399,-1.75586 -3.46332,-0.19492 -4.57226,-0.46875 -4.57226,-0.46875 l 0,9.42383 0,9.42382 c 0,0 1.74505,0.22856 4.57226,0.46875 2.82721,0.24024 7.33399,1.75586 7.33399,1.75586 0,0 4.50677,-1.51562 7.33398,-1.75586 z"
           id="path4198"
           inkscape:connector-curvature="0"
           sodipodi:nodetypes="ccccscscccccc" />
        <path
           sodipodi:nodetypes="ccccsccc"
           inkscape:connector-curvature="0"
           id="path4343"
           d="m 855.34001,375.09664 c 2.80035,-0.2371 4.52883,-0.46272 4.52883,-0.46272 l 0,-9.30239 0,-9.3024 c 0,0 -1.09841,0.2703 -4.52883,0.46271 -3.43042,0.1924 -7.26429,1.73323 -7.26429,1.73323 l 0,18.6048 c 0,0 4.46395,-1.49608 7.26429,-1.73323 z"
           style="opacity:0.25;fill:url(#linearGradient4359);fill-opacity:1;stroke:none;stroke-width:0.24999999;stroke-linecap:round;stroke-linejoin:round;stroke-miterlimit:4;stroke-dasharray:none;stroke-dashoffset:0;stroke-opacity:1" />
        <path
           style="opacity:0.5;fill:url(#linearGradient4377);fill-opacity:1;stroke:none;stroke-width:0.24999999;stroke-linecap:round;stroke-linejoin:round;stroke-miterlimit:4;stroke-dasharray:none;stroke-dashoffset:0;stroke-opacity:1"
           d="m 840.74743,375.09664 c -2.80035,-0.2371 -4.52883,-0.46272 -4.52883,-0.46272 l 0,-9.30239 0,-9.3024 c 0,0 1.09841,0.2703 4.52883,0.46271 3.43042,0.1924 7.26429,1.73323 7.26429,1.73323 l 0,18.6048 c 0,0 -4.46395,-1.49608 -7.26429,-1.73323 z"
           id="path4349"
           inkscape:connector-curvature="0"
           sodipodi:nodetypes="ccccsccc" />
      </g>
      <g
         transform="translate(-0.22631,0.10516202)"
         id="g4602">
        <g
           id="g4587">
          <g
             transform="translate(0,7.5118353)"
             id="g4582">
            <path
               inkscape:connector-curvature="0"
               id="path4490"
               d="m 837.90266,362.09526 8.54271,0.97254"
               style="fill:none;fill-rule:evenodd;stroke:#000000;stroke-width:0.75;stroke-linecap:butt;stroke-linejoin:miter;stroke-opacity:1" />
            <path
               inkscape:connector-curvature="0"
               id="path4494"
               d="m 837.90266,359.65966 8.54271,0.97254"
               style="fill:none;fill-rule:evenodd;stroke:#000000;stroke-width:0.75;stroke-linecap:butt;stroke-linejoin:miter;stroke-opacity:1" />
            <path
               inkscape:connector-curvature="0"
               id="path4500"
               d="m 837.90266,364.53087 8.54271,0.97254"
               style="fill:none;fill-rule:evenodd;stroke:#000000;stroke-width:0.75;stroke-linecap:butt;stroke-linejoin:miter;stroke-opacity:1" />
          </g>
          <g
             transform="translate(0,-10.136452)"
             id="g4578">
            <path
               inkscape:connector-curvature="0"
               id="path4504"
               d="m 837.90266,369.40209 8.54271,0.97254"
               style="fill:none;fill-rule:evenodd;stroke:#000000;stroke-width:0.75;stroke-linecap:butt;stroke-linejoin:miter;stroke-opacity:1" />
            <path
               inkscape:connector-curvature="0"
               id="path4508"
               d="m 837.90266,371.8377 8.54271,0.97254"
               style="fill:none;fill-rule:evenodd;stroke:#000000;stroke-width:0.75;stroke-linecap:butt;stroke-linejoin:miter;stroke-opacity:1" />
          </g>
        </g>
        <g
           id="g4596">
          <rect
             transform="matrix(0.99018114,-0.13979027,0,1,0,0)"
             y="479.76233"
             x="858.62567"
             height="8.5978832"
             width="7.7691274"
             id="rect4568"
             style="opacity:1;fill:#000000;fill-opacity:0.6745098;stroke:none;stroke-width:0.75;stroke-linecap:round;stroke-linejoin:round;stroke-miterlimit:4;stroke-dasharray:none;stroke-dashoffset:0;stroke-opacity:0" />
          <g
             transform="matrix(-1,0,0,1,1707.3361,0)"
             id="g4574">
            <path
               style="fill:none;fill-rule:evenodd;stroke:#000000;stroke-width:0.75;stroke-linecap:butt;stroke-linejoin:miter;stroke-opacity:1"
               d="m 848.76314,369.40209 8.54271,0.97254"
               id="path4570"
               inkscape:connector-curvature="0" />
            <path
               style="fill:none;fill-rule:evenodd;stroke:#000000;stroke-width:0.75;stroke-linecap:butt;stroke-linejoin:miter;stroke-opacity:1"
               d="m 848.76314,371.8377 8.54271,0.97254"
               id="path4572"
               inkscape:connector-curvature="0" />
          </g>
        </g>
      </g>
    </g>
  </g>
</svg>
