<?xml version="1.0" encoding="UTF-8" standalone="no"?>
<svg 
	xmlns="http://www.w3.org/2000/svg" 
	xmlns:xlink="http://www.w3.org/1999/xlink"
	version="1.1" id="meitemarkhulene_svg"
	viewBox="0 0 1536 1080">
	<script>
		<![CDATA[
		window.onload = svginit;
		var layer1, transition01, motion01, char01, spin01, meitemark_hviler;
		function svginit() {
			console.log("svg init");
			bakgrunn = document.getElementById('bakgrunn_meitemarkhulene');
			bakgrunn.addEventListener("click", getCoords, true);
			transition01=document.getElementById('transition01');
			motion01=document.getElementById('c01a01');
			char01=document.getElementById('char01');
			spin01=document.getElementById('spin01');
			char01.addEventListener("click", spin, false);
			meitemark_hviler = document.getElementById('meitemark_hviler');
			meitemark_hviler.addEventListener("click", meitemarkspin, false);
			meitemark_spinner_anim = document.getElementById('meitemark_hviler_rot_start');
		}
		function getCoords(ev) {
			
			console.log(ev.target.nodeName + ' #' + ev.target.getAttribute('id') + ' ' + ev.clientX + ',' + ev.clientY);
			animate();
		}
		function animate() {
			motion01.beginElement();
		}
		
		var meitemarkspin = function (ev) {
			meitemark_spinner_anim.beginElement();
		}
		
		var spin = (function () {
			var spinning = false;
			var toggleSpin = function () {
				if (spinning === false) {
					spinning = true;
					spin01.beginElement();
					console.log('spinning');
				} else if (spinning === true) {
					spinning = false;
					spin01.endElement();
					console.log('stop spinning');
				}
			}
			return toggleSpin;
		}());
		]]>
	</script>
	<defs id="defs">
		<style type="text/css">
			#mpath01 {
				fill: none; stroke: red; stroke-width: 5;
			}
			#tri01 {
				fill: rgba(255,0,255,0.7);
				stroke: black;
				stroke-width: 3;
			}
		</style>
		<path id="mpath01" d="M 399,283 c 0,0 2,31 70,68 51,27 85,37 84,94 -1,109 -235,122 -179,226 55,103 271,42 371,66 100,24 233,81 233,81"></path>
		<path id="mpath12" d="M 978,849 c -25,12 -102,-132 -168,-86 -36,25 -41,62 -35,85 11,40 41,51 41,51"></path>
		<path id="mpath23" d="M 818,938 C 713,828 806,729 965,812 c 158,83 209,92 244,113"></path>
		<path id="mpath30" d="M 1213,920 c 0,0 -345,-149 -513,-184 C 532,700 380,767 360,662 339,556 570,527 560,440 552,377 477,383 439,349 403,317 397,261 364,245 335,231 289,285 289,285"></path>
		<path id="mpath40" d="M 1359,642 c 0,0 -81,65 -124,146 C 1180,892 1144,905 1075,871 980,824 836,779 704,752 536,717 370,764 359,659 348,554 481,556 529,515 577,474 570,369 478,331"></path>
		<path id="tri01" d="M0 0 v-10 l 20 10 l -20 10 Z">
			<animateTransform id="spin01"
				attributeType="xml"
				attributeName="transform"
				begin="indefinite"
				type="rotate"
				from="0 10 0"
				to="720 10 0"
				dur="4s"
				repeatCount="indefinite"/>
		</path>
		<image id="_bille" xlink:href="bille01.png" x="0" y="-147" width="294" height="300" transform="scale(0.5)"></image>
		<image id="_skolopender_spiser" xlink:href="skolopender_spiser_mark.png" x="-307.5" y="-400" width="615" height="800" transform="scale(0.55)"></image>
		<image id="_skolopender_jakter" xlink:href="skolopender01.png" x="-400" y="-135" width="800" height="270" transform="scale(0.7)"></image>
		<image id="_meitemark_spist" xlink:href="spist_meitemark02.png" x="-310" y="-400" width="620" height="800" transform="scale(.43) rotate(10)"></image>
		<image id="_meitemark_par" xlink:href="meitemark_par01.png" x="-400" y="-94" width="800" height="188" transform="scale(0.55)" ></image>
		<image id="_meitemark_hviler" xlink:href="meitemark03_hviler.png" x="-200" y="-164.5" width="400" height="329" transform="scale(0.55)"></image>
		<image id="_kokong" xlink:href="kokong01.png" x="-200" y="-164.5" width="400" height="329" transform="scale(0.4)"></image>
		<image id="_meitemark01" xlink:href="meitemark01.png" x="-400" y="-62" width="800" height="124" transform="scale(0.6)"></image>
		<image id="_meitemark02" xlink:href="meitemark02.png" x="-400" y="-62" width="800" height="160.5" transform="scale(1.2)"></image>
		<image id="_meitemarkdrit_mange" xlink:href="meitemarkdrit02.png" x="-150" y="-135" width="300" height="270" transform="scale(.75)"></image>
		<image id="_skolopender_oppdager_gjestene" xlink:href="skolopender_oppdager_gjestene.png" x="-267" y="-400" width="534" height="800" transform="scale(1)"></image>
		<use id="_bille01" xlink:href="#_bille" x="0" y="0" transform="rotate(0)"></use>
		<use id="_bille02" xlink:href="#_bille" x="0" y="0" transform="rotate(0)"></use>
		<use id="_skolopender01" xlink:href="#_skolopender_spiser" x="0" y="0" transform="rotate(0)"></use>
		<use id="_meitemark_par01" xlink:href="#_meitemark_par" x="0" y="0" transform="rotate(0)"></use>
		<use id="_meitemark_hviler01" xlink:href="#_meitemark_hviler" x="0" y="0" transform="rotate(0)">
			<animateTransform id="meitemark_hviler_rot_start" attributeType="xml"
				attributeName="transform"
				begin="indefinite"
				type="rotate"
				from="0"
				to="10"
				dur="1s"
			    calcMode="linear"
				fill="remove"
				repeatCount="1"/>
			<animateTransform attributeType="xml"
				attributeName="transform"
				begin="meitemark_hviler_rot_start.end"
				type="rotate"
				from="10"
				to="0"
				dur="1s"
				repeatCount="1"/>
		</use>
		
		<!--<rect id="_oppdaget" x="0" y="0" width="800" height="800" style="stroke: black;" fill="url('skolopender_oppdager_gjestene.png')" ></rect>-->
		<use id="_meitemark01b" xlink:href="#_meitemark01" x="0" y="0" transform="scale(1.2)"></use>
		
		<g id="_oppdaget">
			<rect x="-400" y="-400" width="800" height="800" style="stroke: black; fill: black; fill-opacity: 0.7"></rect>
			<use xlink:href="#_skolopender_oppdager_gjestene" x="0" y="0"></use>
		</g>
		
	</defs>
	<g id="background">
		<image xlink:href="bg-0006.jpg" x="0" y="0" width="1536" height="1080"
			id="bakgrunn_meitemarkhulene"/>
		<use id="drit_mange01" xlink:href="#_meitemarkdrit_mange" x="0" y="0" transform="translate(1430,1061) rotate(0)"/>
		<use id="drit_mange02" xlink:href="#_meitemarkdrit_mange" x="0" y="0" transform="translate(1350,961) rotate(45) scale(0.8)"></use>
		<use id="drit_mange03" xlink:href="#_meitemarkdrit_mange" x="0" y="0" transform="translate(850,1074) rotate(0) scale(0.9)"></use>
		<use id="drit_mange04" xlink:href="#_meitemarkdrit_mange" x="0" y="0" transform="translate(80,850) rotate(160) scale(0.8)"></use>
		<use id="bille01" xlink:href="#_bille01" x="0" y="0" transform="translate(1400,900) rotate(60)"/>
		<use id="bille02" xlink:href="#_bille02" x="0" y="0" transform="translate(750,1080) rotate(-75)"/>
		<use id="skolopender01" xlink:href="#_skolopender01" x="0" y="0" transform="translate(1360,690) rotate(10)">
			<set attributeName="visibility" attributeType="CSS" begin="c02a40.begin" to="hidden"></set>
		</use>
		
		<use id="meitemark_par" xlink:href="#_meitemark_par01" x="0" y="0" transform="translate(1020, 970) rotate(17)"/>
		<use id="meitemark_hviler" xlink:href="#_meitemark_hviler01" x="0" y="0" transform="translate(340,920) rotate(-100)"></use>
		<use id="kokong" xlink:href="#_kokong" x="0" y="0" transform="translate(1150,1055) rotate(3)"/>
		<use id="meitemark01" xlink:href="#_meitemark01" x="0" y="0" transform="translate(1200,590) rotate(-27)"/>
		<use id="meitemark01b" xlink:href="#_meitemark01b" x="0" y="0" transform="translate(1200,400) rotate(-10) scale(1,-1)"/>
		<use id="meitemark02" xlink:href="#_meitemark02" x="0" y="0" transform="translate(200,550) rotate(80)"></use>
			<use id="char01" xlink:href="#tri01" x="-10" y="-10">
			<animateMotion id="c01a01" begin="indefinite" dur="5s" repeatCount="1" rotate="auto" additive="sum">
				<mpath xlink:href="#mpath01"></mpath>
			</animateMotion>
			<animateMotion id="c01a12" begin="c01a01.end" dur="3s" repeatCount="1" rotate="auto" additive="sum">
				<mpath xlink:href="#mpath12"></mpath>
			</animateMotion>
			<animateMotion id="c01a23" begin="c01a12.end" dur="5s" repeatCount="1" rotate="auto" additive="sum">
				<mpath xlink:href="#mpath23"></mpath>
			</animateMotion>
			<animateMotion id="c01a30" begin="c01a23.end" dur="3s" repeatCount="1" fill="freeze" rotate="auto" additive="sum">
				<mpath xlink:href="#mpath30"></mpath>
			</animateMotion>
		</use>
		<use xlink:href="#_meitemark_spist" x="0" y="0" transform="translate(1375,710)" visibility="hidden">
			<set attributeName="visibility" attributeType="CSS" to="visible" begin="c02a40.begin"></set>
		</use>
		<use id="skolopender_jakter" xlink:href="#_skolopender_jakter" x="0" y="0" transform="rotate(0)" visibility="hidden">
			<set attributeName="visibility" attributeType="CSS" to="visible" begin="c01a30.begin"></set>
			<animateMotion id="c02a40" begin="c01a30.begin" dur="4s" repeatCount="1" fill="freeze" rotate="auto" additive="sum">
				<mpath xlink:href="#mpath40"></mpath>
			</animateMotion>
		</use>
		
	</g>
	<use xlink:href="#_oppdaget" x="50%" y="50%"></use>
	
	<!--<rect id="eventCatcher" x="0" y="0" width="1536" height="1080"
		style="fill: none;" pointer-events="visible" />-->
</svg>
